<svg width="38" height="24" fill="none" xmlns="http://www.w3.org/2000/svg">
    <g transform="translate(0,6)">
        <path d="M11.117.213L7.946 8.11 6.662 1.396a1.395 1.395 0 00-.48-.848 1.433 1.433 0 00-.926-.335H.072L0 .548c1.064.229 2.273.603 3.006.989.449.24.577.448.73 1.02l2.424 9.262h3.212L14.318.213h-3.2zm4.507 0l-2.52 11.606h3.048L18.672.213h-3.048zm17.472 3.135l.924 4.358h-2.529l1.605-4.358zM32.649.213a1.398 1.398 0 00-.781.228c-.231.152-.41.369-.515.622L26.78 11.82h3.199l.635-1.734h3.91l.372 1.734h2.818L35.25.213h-2.6zM19.501 3.836C19.482 5.509 21.015 6.44 22.171 7c1.185.575 1.583.933 1.579 1.438-.009.779-.948 1.122-1.824 1.135-1.531.025-2.42-.407-3.13-.732l-.545 2.54c.711.323 2.025.604 3.388.618 3.202 0 5.295-1.558 5.306-3.97.013-3.064-4.299-3.233-4.27-4.605.01-.415.412-.863 1.293-.972a5.823 5.823 0 013.003.52l.536-2.46A8.268 8.268 0 0024.65 0c-3.012 0-5.132 1.583-5.15 3.836z" fill="#7C879E"/>
    </g>
</svg>
