<svg width="17" height="24" fill="none" xmlns="http://www.w3.org/2000/svg">
    <g transform="translate(0,1)">
        <path d="M13.388 10.625c.028 3.027 2.614 4.034 2.643 4.047-.022.071-.414 1.435-1.363 2.845-.82 1.218-1.672 2.432-3.014 2.457-1.318.025-1.742-.794-3.249-.794-1.507 0-1.978.769-3.225.819-1.295.05-2.282-1.318-3.109-2.532C.381 14.984-.912 10.451.823 7.391c.862-1.52 2.402-2.482 4.074-2.507 1.272-.025 2.472.869 3.25.869.776 0 2.235-1.075 3.768-.917.642.027 2.444.263 3.6 1.984-.092.059-2.15 1.275-2.127 3.805zm-2.477-7.432c.687-.845 1.15-2.022 1.024-3.193-.991.04-2.19.67-2.9 1.516-.637.748-1.195 1.946-1.045 3.093 1.105.087 2.233-.57 2.92-1.416" fill="#7C879E"/>
    </g>
</svg>
