<svg width="52" height="24" fill="none" xmlns="http://www.w3.org/2000/svg">
    <g transform="translate(0,8)">
        <path d="M22.806 5.742c.27-1.362-.007-2.043-.843-2.043-.83 0-1.361.674-1.602 2.043-.298 1.354-.028 2.02.8 1.99.83.03 1.369-.628 1.645-1.99zm17.925 1.135c-.107.537.113.817.68.855.638.03 1.092-.568 1.34-1.808-1.212-.053-1.878.264-2.02.953zm-3.424-4.169c.163-.854-.326-1.263-1.488-1.233-.284.03-.454.03-.532 0l-.489 2.467c.093 0 .27.015.525.052 1.155.122 1.814-.31 1.984-1.286zm5.118.81c-.454.03-.766.333-.929.9h-1.644c.156-.696.524-1.203 1.099-1.52.432-.22 1.02-.348 1.764-.379 1.552.03 2.212.787 1.942 2.277l-.659 3.322c-.014.068-.028.136-.05.234.015.22.015.363.008.431h-1.517c0-.287.014-.56.07-.802-.474.598-1.126.9-1.948.9-1.205-.067-1.716-.65-1.517-1.754.234-.916.78-1.566 1.637-1.945.546-.22 1.304-.333 2.275-.333l.114-.567c.007-.484-.206-.734-.645-.764zM33.842.008h2.53c2.218-.03 3.16.862 2.792 2.7-.397 1.71-1.523 2.603-3.373 2.701h-1.297l-.667 3.367h-1.736l1.75-8.768zm-7.45 2.655h1.68l-.134.711.035.046c.411-.568 1.05-.863 1.907-.9.978.158 1.516.597 1.601 1.33-.02.371-.035.69-.056.946l-.787 3.98h-1.736l.73-3.647c.148-.915-.093-1.392-.738-1.422-.63.068-1.077.537-1.304 1.422l-.73 3.647h-1.68l1.213-6.113zm-4.188-.144c1.878.099 2.65 1.173 2.332 3.23-.49 2.013-1.694 3.057-3.6 3.125-1.915-.068-2.694-1.104-2.347-3.124.46-2.066 1.673-3.14 3.615-3.23zM16.754.008h1.821l-.312 1.558h-1.821l.311-1.558zM3.003 8.867C.672 8.798-.292 7.687.076 5.5L1.168 0H2.94l-.95 4.789c-.503 1.96-.085 2.89 1.262 2.791 1.254.099 2.034-.84 2.331-2.791L6.533 0h1.78L7.22 5.5c-.525 2.186-1.928 3.306-4.217 3.367zm11.418-4.07l-.794 3.979h-1.723l.724-3.647c.148-.915-.093-1.392-.738-1.422-.637.068-1.07.537-1.304 1.422l-.723 3.647H8.17l1.22-6.12h1.686l-.134.71.035.046c.411-.567 1.049-.862 1.914-.9.978.159 1.51.597 1.601 1.331-.035.378-.05.696-.07.953zm1.842-2.134H18l-1.22 6.12h-1.736l1.22-6.12zM47.457 11H45.77l1.148-2.224-.957-6.12h1.829l.397 4.22 2.133-4.22H52L47.457 11z" fill="#7C879E"/>
    </g>
</svg>
