<svg width="20" height="20" fill="none" xmlns="http://www.w3.org/2000/svg">
    <path d="M11.667 7.976c1.125 0 2.12.587 2.723 1.487.384.572.61 1.27.61 2.025C15 13.428 13.508 15 11.667 15c-.368 0-.667-.315-.667-.702 0-.388.299-.703.667-.703 1.104 0 2-.943 2-2.107 0-1.163-.896-2.107-2-2.107l-4.39-.005 1.69 1.78a.73.73 0 01-.008.985.643.643 0 01-.935.009L5.196 9.17A.72.72 0 015 8.674a.72.72 0 01.196-.497l2.828-2.98a.643.643 0 01.935.009.73.73 0 01.008.984l-1.69 1.781 4.39.005z" fill="#fff"/>
</svg>
